<svg width="60" height="60" viewBox="0 0 60 60" fill="none" xmlns="http://www.w3.org/2000/svg">
  <rect width="60" height="60" fill="#f3f4f6"/>
  <path d="M20 25C22.2091 25 24 23.2091 24 21C24 18.7909 22.2091 17 20 17C17.7909 17 16 18.7909 16 21C16 23.2091 17.7909 25 20 25Z" fill="#9ca3af"/>
  <path d="M44 43H16C14.8954 43 14 42.1046 14 41V19C14 17.8954 14.8954 17 16 17H44C45.1046 17 46 17.8954 46 19V41C46 42.1046 45.1046 43 44 43Z" stroke="#9ca3af" stroke-width="2"/>
  <path d="M46 33L38 25L30 33L22 25L14 33" stroke="#9ca3af" stroke-width="2" stroke-linecap="round" stroke-linejoin="round"/>
</svg>
